<?xml version="1.0" standalone="no"?>
<!DOCTYPE svg PUBLIC "-//W3C//DTD SVG 20010904//EN"
 "http://www.w3.org/TR/2001/REC-SVG-20010904/DTD/svg10.dtd">
<svg version="1.0" xmlns="http://www.w3.org/2000/svg"
 width="512.000000pt" height="512.000000pt" viewBox="0 0 512.000000 512.000000"
 preserveAspectRatio="xMidYMid meet">
<metadata>
Created by potrace 1.11, written by Peter Selinger 2001-2013
</metadata>
<g transform="translate(0.000000,512.000000) scale(0.100000,-0.100000)"
fill="#000000" stroke="none">
<path d="M2500 4724 c-29 -6 -39 -10 -145 -59 -180 -84 -214 -93 -426 -104
-107 -6 -211 -17 -232 -23 -50 -17 -134 -88 -198 -169 -121 -152 -174 -195
-369 -294 -196 -101 -229 -146 -285 -400 -22 -99 -54 -172 -116 -265 -32 -48
-59 -95 -59 -104 0 -9 -7 -16 -16 -16 -39 0 -140 -46 -176 -80 -32 -32 -38
-43 -38 -79 0 -27 8 -54 20 -71 24 -33 104 -67 170 -71 l45 -4 6 60 c3 33 9
69 14 80 11 27 74 119 137 202 67 89 100 162 138 307 57 222 85 257 291 361
136 70 200 119 284 224 85 107 152 168 203 186 31 11 104 19 212 25 186 9 182
8 399 110 134 63 161 72 210 72 77 0 140 -20 257 -83 55 -29 115 -61 134 -71
24 -13 56 -18 110 -18 127 0 291 -20 340 -41 56 -25 88 -55 155 -144 95 -125
178 -193 331 -268 177 -86 221 -136 262 -292 6 -22 15 -59 22 -82 l11 -43 60
0 c41 0 61 4 65 13 8 21 -57 260 -87 318 -29 59 -108 120 -244 189 -153 78
-229 138 -324 259 -79 100 -162 172 -220 190 -21 6 -118 15 -217 21 -98 6
-199 15 -224 21 -39 10 -258 101 -314 131 -21 11 -147 19 -186 12z"/>
<path d="M4140 3520 c-194 -18 -382 -46 -602 -91 -57 -12 -122 -25 -145 -30
-84 -17 -350 -82 -488 -119 -44 -12 -111 -30 -150 -40 -138 -36 -189 -51 -194
-55 -10 -11 51 -4 140 15 52 12 108 23 124 27 17 3 59 13 95 23 36 9 88 22
115 28 28 6 88 20 135 31 102 24 486 98 585 112 403 60 637 73 774 44 86 -18
141 -40 141 -56 0 -11 -29 -10 -105 7 -41 9 -22 -8 23 -21 48 -14 59 -48 13
-39 -20 4 -31 3 -31 -5 0 -6 13 -14 30 -17 16 -4 35 -13 41 -20 10 -12 3 -13
-37 -8 l-49 6 43 -23 c49 -27 55 -43 12 -35 -86 17 -95 18 -85 9 6 -5 29 -15
51 -21 23 -7 47 -19 54 -27 12 -14 8 -15 -31 -10 -41 6 -43 5 -25 -9 11 -9 26
-16 33 -16 7 0 13 -7 13 -16 0 -12 -6 -15 -24 -10 -36 9 -41 -10 -6 -24 39
-16 39 -33 0 -26 -16 3 -43 9 -59 12 -16 3 -32 0 -36 -5 -4 -7 4 -11 19 -11
36 0 106 -30 106 -45 0 -10 -10 -11 -42 -4 -59 14 -81 6 -30 -11 46 -17 53
-36 10 -32 -16 1 -28 -2 -28 -8 0 -5 7 -10 15 -10 22 0 66 -30 59 -41 -3 -5
-14 -4 -26 2 -13 7 -24 7 -30 1 -7 -7 -3 -12 11 -17 25 -8 28 -35 4 -35 -17
-1 -17 -2 1 -15 18 -13 17 -14 -5 -20 -22 -5 -24 -11 -21 -46 4 -34 9 -42 33
-51 16 -5 29 -16 29 -24 0 -8 5 -14 10 -14 6 0 10 -7 10 -15 0 -8 -9 -15 -19
-15 -39 0 -46 -9 -46 -58 1 -40 4 -47 22 -50 30 -4 53 -82 32 -108 -19 -23
-20 -86 -1 -101 16 -12 16 -12 0 -13 -10 0 -18 -4 -18 -10 0 -5 21 -10 46 -10
57 0 56 -22 -2 -31 -38 -6 -38 -6 13 -8 28 0 59 -4 69 -8 18 -7 19 -17 -6 147
-46 305 -41 691 10 913 5 23 10 49 10 58 0 26 -76 69 -148 85 -84 18 -316 25
-442 14z m507 -172 c-3 -8 -6 -5 -6 6 -1 11 2 17 5 13 3 -3 4 -12 1 -19z m21
-876 c2 -7 -5 -12 -17 -12 -14 0 -19 5 -14 15 6 17 25 15 31 -3z"/>
<path d="M40 3329 c0 -6 39 -89 87 -186 99 -201 97 -169 18 -339 -65 -138 -65
-130 -3 -138 29 -4 93 -10 143 -15 50 -4 103 -13 119 -20 40 -16 44 -6 34 82
-4 39 -12 117 -17 172 -11 104 -26 212 -36 255 -9 36 30 90 88 120 26 14 47
29 47 34 0 4 -20 5 -44 2 -91 -14 -201 -7 -315 18 -133 30 -121 29 -121 15z"/>
<path d="M2490 3170 c-12 -8 -9 -10 12 -10 15 0 30 5 33 10 8 13 -25 13 -45 0z"/>
<path d="M4177 3054 c-23 -13 -27 -20 -23 -42 7 -30 -1 -45 -26 -55 -29 -10
-22 -45 9 -49 31 -4 38 -22 53 -143 19 -161 40 -195 119 -195 52 0 78 18 67
45 -4 10 -13 14 -28 10 -49 -12 -70 28 -87 165 -5 36 -12 76 -15 90 -9 35 5
50 47 52 37 1 49 12 38 38 -4 10 -20 15 -51 15 -45 0 -45 0 -54 43 -11 47 -10
47 -49 26z"/>
<path d="M445 2939 c39 -223 37 -686 -4 -899 -18 -94 -30 -147 -45 -195 -15
-47 -15 -52 2 -74 44 -60 206 -103 413 -110 24 -1 27 -7 51 -104 50 -199 87
-242 301 -351 158 -80 204 -118 326 -265 96 -116 123 -140 194 -170 52 -23
211 -39 220 -23 4 5 0 22 -8 38 -7 16 -18 40 -23 54 -8 21 -20 28 -69 38 -85
17 -138 57 -243 182 -112 135 -163 176 -305 247 -170 85 -223 139 -260 259
-29 94 -33 91 113 98 129 6 148 8 447 47 263 34 276 36 338 48 95 18 170 33
202 38 31 6 47 21 38 35 -2 5 -12 6 -21 4 -10 -3 -53 -10 -97 -16 -44 -5 -102
-14 -130 -20 -27 -5 -86 -14 -130 -20 -44 -6 -114 -15 -155 -20 -77 -11 -205
-24 -345 -37 -44 -5 -195 -8 -335 -8 -259 0 -328 7 -410 42 -78 34 -90 72 -14
46 58 -20 68 -10 16 16 -41 21 -71 50 -39 38 38 -14 90 -20 83 -8 -4 6 -13 11
-20 11 -19 0 -63 37 -54 45 3 4 16 1 28 -5 14 -8 26 -8 32 -2 6 6 -2 14 -21
21 -16 7 -32 19 -35 27 -6 17 1 17 43 3 45 -16 51 -3 7 17 -36 18 -54 54 -18
39 9 -5 33 -10 52 -12 l35 -3 -40 17 c-22 10 -46 22 -53 26 -24 16 -11 25 25
16 48 -10 52 -5 14 17 -33 20 -44 51 -13 39 9 -4 33 -9 52 -12 33 -4 32 -3
-16 20 -62 30 -81 52 -38 45 16 -3 37 -9 47 -13 10 -4 17 -3 17 4 0 6 -11 16
-25 21 -31 12 -32 27 -2 33 21 3 21 4 -5 15 -35 15 -37 36 -3 30 29 -6 31 -1
8 24 -15 17 -15 18 5 18 23 0 42 22 24 28 -20 6 -2 22 26 22 20 0 23 3 14 12
-7 7 -12 19 -12 27 0 26 -17 44 -42 46 -32 2 -29 29 5 33 31 4 35 16 10 31
-16 10 -16 11 5 17 26 8 29 24 5 25 -11 0 -13 3 -5 6 18 7 15 21 -8 28 -11 3
-20 11 -20 17 0 6 -7 16 -14 22 -8 6 -16 25 -18 41 -2 25 0 30 17 28 34 -4 49
5 36 21 -9 11 -9 15 1 18 10 4 10 8 -1 21 -9 11 -10 17 -2 17 6 0 11 5 11 10
0 6 -9 10 -20 10 -12 0 -26 12 -35 30 -9 17 -27 36 -40 42 -31 14 -32 38 -2
38 12 0 29 5 37 10 11 7 6 10 -22 10 -45 0 -68 8 -68 25 0 9 12 11 44 8 54 -7
70 12 18 22 -20 3 -47 9 -60 12 -22 5 -23 3 -17 -28z m120 -599 c3 -5 -1 -10
-9 -10 -9 0 -16 5 -16 10 0 6 4 10 9 10 6 0 13 -4 16 -10z"/>
<path d="M3857 2911 c-14 -9 -34 -27 -44 -40 -20 -25 -43 -22 -43 5 0 9 -11
14 -30 14 -17 0 -30 -5 -30 -12 0 -17 29 -204 40 -261 6 -27 10 -66 10 -87 0
-30 5 -40 20 -45 32 -10 60 11 55 43 -45 253 -31 332 55 332 55 0 77 -35 96
-152 8 -51 18 -113 22 -138 8 -49 25 -60 56 -37 20 15 20 23 -13 238 -11 67
-33 113 -65 134 -34 22 -100 25 -129 6z"/>
<path d="M2718 2892 c-57 -14 -68 -20 -68 -37 1 -21 14 -121 29 -220 28 -181
33 -215 39 -265 6 -47 10 -55 30 -58 50 -7 54 11 30 150 -13 80 -4 98 49 98
38 0 99 28 124 56 79 90 59 221 -41 272 -51 26 -95 26 -192 4z m178 -77 c44
-51 40 -128 -9 -172 -24 -23 -114 -46 -123 -32 -11 18 -35 184 -30 205 11 44
124 43 162 -1z"/>
<path d="M3516 2845 c-3 -8 -3 -21 -1 -27 3 -7 14 -76 25 -153 33 -234 28
-217 64 -213 29 3 31 5 30 43 0 22 -6 74 -12 115 -6 41 -16 107 -21 145 -5 39
-13 78 -17 88 -8 21 -60 23 -68 2z"/>
<path d="M3203 2812 c-12 -4 -36 -20 -53 -35 -113 -101 -67 -334 73 -375 33
-10 51 -11 65 -3 12 6 30 11 41 11 32 0 96 64 109 108 29 97 -1 219 -65 268
-29 22 -50 29 -92 31 -31 1 -66 -1 -78 -5z m117 -70 c47 -48 69 -177 39 -235
-41 -80 -130 -71 -176 16 -22 44 -22 175 1 210 30 46 95 50 136 9z"/>
<path d="M5019 2626 c-12 -12 -161 -36 -221 -36 -64 0 -73 -4 -70 -31 3 -28
35 -218 46 -274 43 -217 42 -196 11 -245 -31 -51 -81 -107 -108 -121 -10 -6
-3 9 17 36 33 42 66 126 66 165 0 36 -48 65 -123 73 -195 21 -174 23 -186 -15
-6 -19 -50 -85 -97 -148 -109 -145 -136 -194 -163 -300 -12 -47 -27 -103 -33
-125 -39 -149 -80 -197 -237 -280 -60 -31 -136 -74 -169 -95 -69 -45 -154
-139 -173 -192 -19 -55 -115 -175 -184 -230 -77 -63 -81 -73 -21 -64 108 16
167 60 296 216 103 124 160 170 289 235 236 118 277 164 325 370 24 101 37
144 61 200 l22 50 89 14 c49 7 100 19 114 26 16 8 44 11 73 8 26 -3 66 -1 89
5 24 6 102 25 173 43 72 17 135 36 142 41 9 7 -5 45 -58 149 l-70 140 21 72
c12 40 26 81 30 92 26 64 67 211 61 218 -4 4 -9 5 -12 3z"/>
<path d="M4680 2270 c-50 -5 -52 -7 -25 -14 17 -4 43 -12 58 -16 22 -7 29 -6
34 6 9 24 -8 30 -67 24z"/>
<path d="M578 1883 c6 -2 18 -2 25 0 6 3 1 5 -13 5 -14 0 -19 -2 -12 -5z"/>
<path d="M3231 1851 c-11 -7 -9 -22 13 -83 28 -79 32 -123 17 -175 -11 -38 -2
-48 36 -38 25 6 25 8 20 68 -13 135 -39 237 -60 237 -7 0 -18 -4 -26 -9z"/>
<path d="M2216 1649 c-11 -28 -22 -92 -26 -143 -6 -76 -4 -93 8 -103 30 -24
45 -16 37 20 -4 17 -8 59 -8 92 -1 49 4 70 28 113 26 45 28 54 15 62 -27 17
-36 11 -54 -41z"/>
<path d="M2920 1663 c-8 -3 -38 -16 -65 -29 -53 -25 -185 -137 -185 -157 0 -7
-14 -28 -32 -47 -56 -64 -71 -112 -73 -240 -1 -63 -3 -117 -4 -120 -10 -24
-51 161 -51 232 0 51 16 128 34 167 9 20 7 26 -13 42 -13 10 -28 16 -35 12 -6
-4 -19 -6 -29 -5 -9 2 -42 -4 -72 -13 -52 -15 -55 -17 -55 -47 0 -26 -11 -42
-52 -81 -79 -74 -126 -85 -113 -26 11 50 -17 45 -79 -15 -72 -70 -126 -162
-143 -243 -12 -58 -11 -71 8 -141 23 -87 67 -175 111 -224 16 -18 35 -40 41
-49 7 -9 42 -39 79 -67 55 -41 81 -53 144 -68 88 -19 222 -14 259 10 12 8 44
21 71 29 27 8 79 29 116 46 132 60 135 61 252 61 l112 0 76 50 c151 99 235
195 283 323 35 94 36 247 3 314 -24 48 -142 173 -163 173 -21 0 -36 -25 -23
-38 18 -18 -5 -36 -33 -27 -12 4 -44 28 -71 53 -36 34 -48 52 -48 74 0 24 -6
32 -35 44 -33 14 -182 19 -215 7z"/>
<path d="M3202 1608 c2 -12 10 -23 18 -23 22 0 19 39 -3 43 -15 3 -18 -1 -15
-20z"/>
<path d="M2278 1466 c-11 -8 -15 -20 -11 -34 7 -27 11 -27 34 0 34 39 17 65
-23 34z"/>
</g>
</svg>
